<?xml version="1.0"?>
<svg xmlns="http://www.w3.org/2000/svg" height="512px" viewBox="0 -41 512 512" width="512px"><path d="m407 0h-302c-57.898438 0-105 47.101562-105 105v168.945312c0 57.898438 47.101562 105 105 105h15.582031l36.519531 46.332032c2.84375 3.609375 7.1875 5.714844 11.78125 5.714844s8.9375-2.105469 11.78125-5.714844l36.519532-46.332032h189.816406c57.898438 0 105-47.101562 105-105v-168.945312c0-57.898438-47.101562-105-105-105zm-10.222656 240.355469h-281.554688c-8.285156 0-15-6.714844-15-15 0-8.28125 6.714844-15 15-15h281.558594c8.28125 0 15 6.71875 15 15 0 8.285156-6.71875 15-15.003906 15zm0-71.765625h-281.554688c-8.285156 0-15-6.71875-15-15 0-8.285156 6.714844-15 15-15h281.558594c8.28125 0 15 6.714844 15 15 0 8.28125-6.71875 15-15.003906 15zm0 0" fill="#FFFFFF"/></svg>
