<?xml version="1.0" encoding="UTF-8"?>
<!DOCTYPE svg PUBLIC "-//W3C//DTD SVG 1.1//EN" "http://www.w3.org/Graphics/SVG/1.1/DTD/svg11.dtd">
<!-- Creator: CorelDRAW X6 -->
<svg xmlns="http://www.w3.org/2000/svg" xml:space="preserve" width="43.3492mm" height="5.9266mm" version="1.1" style="shape-rendering:geometricPrecision; text-rendering:geometricPrecision; image-rendering:optimizeQuality; fill-rule:evenodd; clip-rule:evenodd"
viewBox="0 0 4335 593"
 xmlns:xlink="http://www.w3.org/1999/xlink">
 <defs>
  <style type="text/css">
   <![CDATA[
    .fil0 {fill:#FF3300;fill-rule:nonzero}
    .fil1 {fill:white;fill-rule:nonzero}
   ]]>
  </style>
 </defs>
 <g id="Слой_x0020_1">
  <metadata id="CorelCorpID_0Corel-Layer"/>
  <g id="_673172160">
   <path class="fil0" d="M1187 591c-11,0 -20,-2 -27,-7 -7,-5 -11,-11 -14,-18l-195 -542 -2 -8c0,-5 2,-9 6,-12 4,-4 9,-6 15,-6l126 0c10,0 18,2 24,7 6,5 10,10 12,16l131 383 132 -383c2,-6 6,-12 12,-16 6,-5 14,-7 24,-7l126 0c6,0 11,2 14,6 4,4 6,8 6,12 0,3 0,5 -1,8l-196 542c-2,7 -6,13 -13,18 -7,5 -16,7 -27,7l-155 0z"/>
   <path class="fil0" d="M875 2c11,0 20,2 27,7 7,5 11,11 14,18l195 542 2 8c0,5 -2,9 -6,12 -4,4 -9,6 -15,6l-126 0c-10,0 -18,-2 -24,-7 -6,-5 -10,-10 -12,-16l-131 -383 -132 383c-2,6 -6,12 -12,16 -6,5 -14,7 -24,7l-126 0c-6,0 -11,-2 -14,-6 -4,-4 -6,-8 -6,-12 0,-3 0,-5 1,-8l196 -542c2,-7 6,-13 13,-18 7,-5 16,-7 27,-7l155 0z"/>
   <path class="fil0" d="M392 2c11,0 20,2 27,7 7,5 11,11 14,18l195 542 2 8c0,5 -2,9 -6,12 -4,4 -9,6 -15,6l-126 0c-10,0 -18,-2 -24,-7 -6,-5 -10,-10 -12,-16l-131 -383 -132 383c-2,6 -6,12 -12,16 -6,5 -14,7 -24,7l-126 0c-6,0 -11,-2 -14,-6 -4,-4 -6,-8 -6,-12 0,-3 0,-5 1,-8l196 -542c2,-7 6,-13 13,-18 7,-5 16,-7 27,-7l155 0z"/>
  </g>
  <path class="fil1" d="M1876 273l0 181c0,14 3,25 9,30 6,6 17,9 33,9l49 0 12 80c-29,10 -65,16 -108,16 -35,0 -62,-10 -81,-29 -19,-19 -29,-46 -29,-81l0 -205 -68 0 0 -73 68 -4 0 -107 114 0 0 107 106 0 0 77 -106 0zm445 -88l-12 106 -31 0c-25,0 -64,9 -117,26l0 261 -115 0 0 -383 89 0 10 56c52,-45 104,-67 155,-67l20 0zm64 96l-11 -78c69,-12 135,-19 199,-19 52,0 90,10 114,31 24,21 36,57 36,109l0 253 -91 0 -12 -58c-38,45 -85,68 -141,68 -37,0 -67,-10 -90,-29 -23,-19 -35,-46 -35,-81l0 -39c0,-31 10,-54 31,-71 21,-17 49,-26 86,-26l137 0 0 -17c-1,-20 -5,-33 -14,-40 -9,-7 -25,-10 -49,-10 -42,0 -96,2 -161,6zm84 166l0 15c0,26 15,40 45,40 31,0 63,-12 95,-37l0 -54 -103 0c-25,1 -37,13 -37,36zm660 40l10 75c-39,17 -89,26 -148,26 -70,0 -120,-15 -149,-45 -29,-30 -43,-82 -43,-156 0,-74 14,-126 43,-156 29,-30 79,-45 150,-45 58,0 105,8 141,24l-12 71c-56,-1 -92,-2 -109,-2 -35,0 -59,8 -73,23 -13,15 -20,43 -20,85 0,42 7,70 20,85 13,15 37,23 73,23 45,0 84,-2 117,-7zm226 -87l-36 0c4,23 5,42 5,57l0 120 -115 0 0 -543 115 0 0 224c0,25 -2,49 -5,70l36 0 95 -133 129 0 -99 133c-8,14 -20,26 -36,36l0 2c13,9 25,23 36,41l113 171 -129 0 -107 -178zm515 25l-138 0c4,28 12,47 25,56 13,10 35,14 66,14 41,0 88,-3 143,-9l11 71c-40,19 -95,29 -167,29 -72,0 -123,-16 -154,-47 -31,-31 -46,-82 -46,-154 0,-75 15,-128 45,-158 30,-30 80,-45 150,-45 64,0 110,11 138,33 28,22 43,55 43,101 0,36 -9,62 -28,80 -18,18 -48,27 -89,27zm-140 -69l109 0c14,0 23,-3 28,-10 5,-7 7,-17 7,-29 0,-18 -5,-31 -14,-38 -9,-7 -26,-10 -51,-10 -29,0 -50,6 -61,17 -11,12 -17,35 -19,70zm606 -172l-12 106 -31 0c-25,0 -64,9 -117,26l0 261 -115 0 0 -383 89 0 10 56c52,-45 104,-67 155,-67l20 0z"/>
 </g>
</svg>
